<svg xmlns="http://www.w3.org/2000/svg" viewBox="0 0 512 512" width="512" height="512">
  <defs>
    <radialGradient id="space" cx="50%" cy="44%" r="62%">
      <stop offset="0%" stop-color="#0c0c24"/>
      <stop offset="60%" stop-color="#07071a"/>
      <stop offset="100%" stop-color="#05050f"/>
    </radialGradient>
    <!-- 多層グロー: 広い柔らかいハロー + 中間 + 締まった芯 -->
    <filter id="glow" x="-60%" y="-60%" width="220%" height="220%">
      <feGaussianBlur in="SourceGraphic" stdDeviation="14" result="b1"/>
      <feGaussianBlur in="SourceGraphic" stdDeviation="6" result="b2"/>
      <feGaussianBlur in="SourceGraphic" stdDeviation="2" result="b3"/>
      <feMerge>
        <feMergeNode in="b1"/>
        <feMergeNode in="b1"/>
        <feMergeNode in="b2"/>
        <feMergeNode in="b3"/>
        <feMergeNode in="SourceGraphic"/>
      </feMerge>
    </filter>
    <clipPath id="tile"><rect x="0" y="0" width="512" height="512" rx="104" ry="104"/></clipPath>
  </defs>
  <g clip-path="url(#tile)">
    <rect x="0" y="0" width="512" height="512" fill="url(#space)"/>
    <g transform="translate(158 166) rotate(0) translate(-153.26 115.86)" fill="#eef2ff" fill-opacity="0.95" filter="url(#glow)"><path d="M171.594-119.789L118.008-119.789L118.008-114.594Q118.008-107.320 109.547-107.320Q103.758-107.320 103.758-113.109L104.648-146.508Q104.648-170.555 102.867-183.914Q112.070-180.352 120.086-175.156L241.211-175.156Q248.781-183.023 250.266-183.023Q251.750-183.023 259.914-176.344Q264.219-172.781 264.219-170.555Q264.219-168.180 256.648-163.281L256.648-150.516L257.242-117.859Q257.242-110.883 249.078-110.883Q243.289-110.883 243.289-116.375L243.289-119.789L185.547-119.789Q185.102-105.687 183.766-91.437L239.281-91.437Q248.781-102.719 250.563-102.719Q252.344-102.719 263.922-93.219Q269.117-89.062 269.117-86.539Q269.117-83.867 265.109-83.867L182.875-83.867Q179.609-66.648 175.602-55.664L256.648-55.664Q266.297-66.945 268.227-66.945Q270.008-66.945 281.883-57.445Q287.078-53.289 287.078-50.766Q287.078-48.094 283.070-48.094L180.352-48.094Q199.500-26.273 227.555-12.320Q252.195 0.297 290.492 1.484Q291.234 1.484 291.234 2.523Q291.234 4.156 290.195 4.453Q285 5.195 282.922 7.125Q280.695 9.055 278.617 14.102Q277.727 17.813 274.016 17.813Q272.086 17.813 262.734 15.438Q236.906 8.906 216.867-4.602Q191.039-21.672 172.484-47.797Q168.922-39.930 164.023-32.656Q140.125 2.375 76.445 18.109Q74.219 18.555 74.219 15.586Q74.219 14.695 74.813 14.398Q132.258-4.602 153.930-40.227Q156.453-44.234 158.234-48.094L94.258-48.094Q89.063-48.094 75.406-46.609L72.734-57.445Q82.977-55.664 94.258-55.664L161.500-55.664Q165.656-66.797 168.922-83.867L110.438-83.867Q102.422-83.867 92.180-82.383L89.359-93.516Q101.383-91.437 110.438-91.437L169.813-91.437Q171.148-105.687 171.594-119.789M171.594-127.359L171.594-167.586L118.008-167.586L118.008-127.359L171.594-127.359M243.289-167.586L185.547-167.586L185.547-127.359L243.289-127.359L243.289-167.586M202.172-208.852L156.602-208.852Q156.750-201.133 157.047-195.492Q157.195-191.781 157.195-191.484Q157.195-184.508 148.734-184.508Q142.945-184.508 142.945-190.297Q142.945-190.594 143.094-192.820Q143.688-199.945 143.836-208.852L108.953-208.852Q100.344-208.852 90.102-207.367L87.281-218.500Q99.156-216.422 108.953-216.422L143.836-216.422L143.836-217.312Q143.836-239.875 142.055-251.453Q158.234-249.523 163.133-248.039Q166.992-246.703 166.992-244.477Q166.992-241.062 156.602-237.797L156.602-216.422L202.172-216.422L202.172-217.312Q202.172-237.500 200.391-251.453Q216.719-249.523 221.469-248.039Q225.328-246.703 225.328-244.477Q225.328-241.062 214.938-237.797L214.938-216.422L255.164-216.422Q265.109-228.297 267.039-228.297Q268.820-228.297 280.992-218.500Q286.484-214.047 286.484-211.523Q286.484-208.852 282.477-208.852L214.938-208.852Q215.086-201.133 215.383-195.492Q215.531-191.781 215.531-191.484Q215.531-184.508 207.070-184.508Q201.281-184.508 201.281-190.297Q201.281-190.594 201.430-192.820Q202.023-199.945 202.172-208.852M70.359-203.359Q66.797-203.359 63.977-209.148Q53.586-230.227 35.625-240.766Q35.328-240.914 35.328-241.359Q35.328-243.586 37.109-243.141Q54.625-239.430 66.945-229.633Q77.633-221.172 77.633-213.156Q77.633-203.359 70.359-203.359M50.172-130.180Q46.313-130.180 42.898-137.453Q33.695-156.750 16.477-168.477Q16.180-168.625 16.180-168.922Q16.180-171.445 18.258-170.852Q35.922-166.844 47.648-156.305Q57.445-147.398 57.445-138.937Q57.445-130.180 50.172-130.180M46.461 19.742Q38 19.742 38 5.492Q38 0.594 38.594-10.242Q39.188-22.414 39.188-29.836Q39.188-43.344 33.102-48.836Q28.648-52.844 16.180-56.555Q15.289-56.852 15.289-58.187Q15.289-60.562 16.773-60.266Q27.164-58.930 30.727-58.930Q35.477-58.930 38-61.008Q40.672-63.086 43.492-69.023Q65.609-115.633 85.203-166.547Q85.500-167.437 86.539-167.437Q87.133-167.437 87.578-167.289Q89.211-166.844 89.211-165.656Q89.211-165.508 89.211-165.359Q74.664-120.086 51.656-58.633Q48.984-51.211 48.984-39.484Q48.984-34.883 52.547-20.187Q56.258-4.156 56.258 4.305Q56.258 19.742 46.461 19.742"/></g>
    <g transform="translate(354 184) rotate(0) translate(-116.62 88.30)" fill="#eef2ff" fill-opacity="1" filter="url(#glow)"><path d="M43.160-158.934L108.297-158.934L108.297-174.453Q108.297-182.383 107.164-191.898Q120.645-190.312 124.496-188.953Q127.555-187.934 127.555-185.895Q127.555-183.176 119.172-179.777L119.172-158.934L190.652-158.934Q197.563-166.410 199.035-166.410Q201.301-166.410 209.004-158.707Q213.648-154.176 213.648-152.023Q213.648-148.738 205.492-148.738Q203.793-148.738 202.434-147.605Q201.867-147.039 200.621-145.680Q199.488-144.434 198.809-143.641Q193.371-137.863 184.648-130.727Q184.422-130.500 183.969-130.500Q182.383-130.500 182.383-131.859Q182.383-132.086 182.496-132.312Q187.367-139.562 192.805-153.156L42.934-153.156Q41.688-139.902 34.551-131.406Q29-124.609 22.883-124.609Q20.164-124.609 18.125-126.762Q16.426-128.687 16.426-131.066Q16.426-134.125 17.898-135.711Q19.145-137.297 23.336-139.676Q39.082-149.984 39.422-168.676Q39.422-169.582 40.668-169.582Q42.027-169.582 42.141-168.676Q43.160-164.031 43.160-158.934M109.656-4.871L109.656-61.285L35.230-61.285Q25.488-61.285 18.012-59.926L15.973-68.422Q25.148-67.062 35.230-67.062L109.656-67.062Q109.656-85.867 108.750-93.117Q120.305-91.758 123.590-90.512Q134.238-98.555 139.789-104.105Q143.301-107.617 153.043-118.605L70.234-118.605Q60.152-118.605 52.563-117.246L50.523-125.742Q59.926-124.383 70.234-124.383L154.402-124.383Q161.426-131.066 162.785-131.066Q164.484-131.066 171.848-123.477Q175.359-119.965 175.359-118.152Q175.359-114.754 165.617-114.414Q152.023-103.312 144.434-98.441Q139.336-95.043 126.309-87.906Q126.309-85.641 120.531-83.035L120.531-67.062L188.047-67.062Q198.016-78.391 199.375-78.391Q200.734-78.391 211.496-69.781Q217.273-65.250 217.273-63.324Q217.273-61.285 214.102-61.285L120.531-61.285L120.531-51.996L121.211-1.359Q121.211 7.703 112.375 12.801Q107.277 15.293 103.426 15.293Q100.707 15.293 100.141 11.555Q99.574 7.250 94.023 4.928Q88.473 2.605 72.840 0Q71.934-0.227 71.934-1.586Q71.934-3.059 72.840-3.059Q100.594-0.680 105.465-0.680Q109.656-0.680 109.656-4.871"/></g>
    <g transform="translate(170 352) rotate(0) translate(-109.62 83.84)" fill="#eef2ff" fill-opacity="0.82" filter="url(#glow)"><path d="M39.746-152.002L102.910-152.002L102.910-165.645Q102.910-172.090 101.836-181.328Q114.941-179.824 118.701-178.535Q121.602-177.568 121.602-175.635Q121.602-172.842 113.760-169.404L113.760-152.002L179.717-152.002Q186.377-158.877 187.666-158.877Q189.600-158.877 197.549-151.357Q201.738-147.490 201.738-145.664Q201.738-142.012 194.004-141.689Q191.533-141.689 188.955-138.682Q184.551-133.311 175.098-125.469Q174.775-125.254 174.346-125.254Q172.734-125.254 172.734-126.436Q172.734-126.543 172.842-126.758Q178.750-136.104 181.650-146.523L39.531-146.523Q38.779-133.418 32.334-125.469Q27.285-119.238 21.484-119.238Q18.691-119.238 16.650-121.494Q14.932-123.428 14.932-126.113Q14.932-129.980 20.410-133.311Q35.771-143.516 36.094-161.670Q36.094-162.529 37.275-162.529Q38.564-162.529 38.672-161.670Q39.316-158.555 39.746-152.002M102.695-6.553L102.695-66.064L35.342-66.064Q25.996-66.064 18.906-64.775L16.865-72.832Q25.889-71.543 35.342-71.543L102.695-71.543L102.695-112.041L59.189-112.041Q51.133-112.041 43.936-110.752L41.787-118.809Q50.166-117.520 59.189-117.520L154.795-117.520Q163.389-127.187 164.678-127.187Q165.967-127.187 175.742-119.453Q180.361-115.801 180.361-113.975Q180.361-112.041 177.461-112.041L113.223-112.041L113.223-71.543L175.742-71.543Q185.625-82.715 186.914-82.715Q188.203-82.715 198.623-74.336Q204.316-69.824 204.316-67.998Q204.316-66.064 201.416-66.064L113.223-66.064L113.223-55.322Q113.223-28.467 113.760-12.568Q114.082-4.082 114.082-2.686Q114.082 6.338 105.703 11.172Q101.299 13.643 97.646 13.643Q94.854 13.643 94.316 10.098Q93.779 6.016 87.764 3.438Q82.178 1.182 67.676-1.719Q66.816-1.934 66.816-3.223Q66.816-5.049 67.891-4.834Q89.160-1.719 97.646-1.719Q102.695-1.719 102.695-6.553"/></g>
    <g transform="translate(348 346) rotate(0) translate(-147.21 113.24)" fill="#eef2ff" fill-opacity="0.96" filter="url(#glow)"><path d="M152.047-164.332L152.047-129.355L222-129.355Q229.949-137.738 231.395-137.738Q232.840-137.738 241.367-130.223Q245.559-126.754 245.559-124.586Q245.559-122.273 237.898-117.215L237.898-70.098Q237.898-28.617 238.910-2.746Q238.910 0.434 239.199 6.648Q239.344 9.828 239.344 10.695Q239.344 18.066 230.238 18.066Q224.313 18.066 224.313 12.141L224.313 0L69.809 0L69.809 10.984Q69.809 18.066 60.703 18.066Q54.777 18.066 54.777 12.430Q54.777 11.273 54.922 6.938Q55.211 1.012 55.355-2.312Q56.223-29.051 56.223-67.785Q56.223-124.586 54.488-138.605Q66.051-133.691 72.410-129.355L138.461-129.355Q138.461-168.523 137.016-179.363Q153.637-177.340 158.406-175.750Q162.164-174.449 162.164-171.992Q162.164-168.523 152.047-164.332M138.461-70.676L138.461-121.984L69.809-121.984L69.809-70.676L138.461-70.676M224.313-121.984L152.047-121.984L152.047-70.676L224.313-70.676L224.313-121.984M152.047-63.305L152.047-7.371L224.313-7.371L224.313-63.305L152.047-63.305M69.809-7.371L138.461-7.371L138.461-63.305L69.809-63.305L69.809-7.371M54.344-199.742L138.461-199.742L138.461-221.422Q138.461-228.793 136.871-244.547Q154.070-242.523 158.840-240.789Q162.742-239.488 162.742-236.887Q162.742-233.418 152.336-229.082L152.336-199.742L244.691-199.742Q252.641-208.125 254.520-208.125Q257.410-208.125 266.949-198.586Q273.164-192.371 273.164-189.770Q273.164-185.289 263.047-185.289Q259.867-185.289 254.520-179.074Q246.426-169.969 235.875-161.008Q235.441-160.719 234.863-160.719Q232.695-160.719 232.695-162.309Q232.695-162.453 232.840-162.742Q242.813-179.219 246.715-192.371L53.766-192.371Q51.887-174.449 43.648-163.031Q36.855-153.926 29.484-153.926Q26.016-153.926 23.414-156.672Q21.246-159.129 21.246-162.164Q21.246-167.801 30.063-173.148Q49.141-187.168 49.863-213.617Q49.863-214.629 51.309-214.629Q53.188-214.629 53.477-213.328Q54.344-206.246 54.344-199.742"/></g>
  </g>
</svg>
