<svg xmlns="http://www.w3.org/2000/svg" viewBox="0 0 512 512" width="512" height="512">
  <defs>
    <radialGradient id="space" cx="50%" cy="44%" r="62%">
      <stop offset="0%" stop-color="#0c0c24"/>
      <stop offset="60%" stop-color="#07071a"/>
      <stop offset="100%" stop-color="#05050f"/>
    </radialGradient>
    <!-- 多層グロー: 広い柔らかいハロー + 中間 + 締まった芯 -->
    <filter id="glow" x="-60%" y="-60%" width="220%" height="220%">
      <feGaussianBlur in="SourceGraphic" stdDeviation="14" result="b1"/>
      <feGaussianBlur in="SourceGraphic" stdDeviation="6" result="b2"/>
      <feGaussianBlur in="SourceGraphic" stdDeviation="2" result="b3"/>
      <feMerge>
        <feMergeNode in="b1"/>
        <feMergeNode in="b1"/>
        <feMergeNode in="b2"/>
        <feMergeNode in="b3"/>
        <feMergeNode in="SourceGraphic"/>
      </feMerge>
    </filter>
    <clipPath id="tile"><rect x="0" y="0" width="512" height="512" rx="104" ry="104"/></clipPath>
  </defs>
  <g clip-path="url(#tile)">
    <rect x="0" y="0" width="512" height="512" fill="url(#space)"/>
    <g transform="translate(148 166) rotate(0) translate(-158.30 119.67)" fill="#eef2ff" fill-opacity="0.95" filter="url(#glow)"><path d="M177.238-123.729L121.890-123.729L121.890-118.363Q121.890-110.851 113.150-110.851Q107.171-110.851 107.171-116.830L108.091-151.327Q108.091-176.165 106.251-189.964Q115.757-186.284 124.036-180.918L249.146-180.918Q256.965-189.044 258.498-189.044Q260.031-189.044 268.464-182.145Q272.910-178.465 272.910-176.165Q272.910-173.712 265.091-168.652L265.091-155.467L265.704-121.736Q265.704-114.530 257.271-114.530Q251.292-114.530 251.292-120.203L251.292-123.729L191.650-123.729Q191.190-109.164 189.811-94.445L247.152-94.445Q256.965-106.098 258.805-106.098Q260.645-106.098 272.604-96.285Q277.970-91.992 277.970-89.386Q277.970-86.626 273.830-86.626L188.891-86.626Q185.518-68.841 181.378-57.495L265.091-57.495Q275.057-69.147 277.050-69.147Q278.890-69.147 291.155-59.335Q296.521-55.042 296.521-52.436Q296.521-49.676 292.382-49.676L186.284-49.676Q206.063-27.138 235.040-12.726Q260.491 0.307 300.048 1.533Q300.814 1.533 300.814 2.606Q300.814 4.293 299.741 4.600Q294.375 5.366 292.229 7.359Q289.929 9.353 287.782 14.565Q286.862 18.398 283.029 18.398Q281.036 18.398 271.377 15.945Q244.699 9.199 224.001-4.753Q197.323-22.385 178.158-49.369Q174.479-41.243 169.419-33.730Q144.734 2.453 78.960 18.705Q76.660 19.165 76.660 16.099Q76.660 15.179 77.273 14.872Q136.608-4.753 158.993-41.550Q161.600-45.689 163.439-49.676L97.358-49.676Q91.992-49.676 77.887-48.143L75.127-59.335Q85.706-57.495 97.358-57.495L166.813-57.495Q171.105-68.994 174.479-86.626L114.070-86.626Q105.791-86.626 95.212-85.093L92.299-96.592Q104.718-94.445 114.070-94.445L175.398-94.445Q176.778-109.164 177.238-123.729M177.238-131.549L177.238-173.099L121.890-173.099L121.890-131.549L177.238-131.549M251.292-173.099L191.650-173.099L191.650-131.549L251.292-131.549L251.292-173.099M208.822-215.722L161.753-215.722Q161.906-207.749 162.213-201.923Q162.366-198.090 162.366-197.783Q162.366-190.577 153.627-190.577Q147.647-190.577 147.647-196.557Q147.647-196.863 147.801-199.163Q148.414-206.522 148.567-215.722L112.537-215.722Q103.645-215.722 93.065-214.188L90.152-225.687Q102.418-223.541 112.537-223.541L148.567-223.541L148.567-224.461Q148.567-247.766 146.728-259.725Q163.439-257.731 168.499-256.198Q172.485-254.818 172.485-252.519Q172.485-248.992 161.753-245.619L161.753-223.541L208.822-223.541L208.822-224.461Q208.822-245.312 206.982-259.725Q223.848-257.731 228.754-256.198Q232.740-254.818 232.740-252.519Q232.740-248.992 222.008-245.619L222.008-223.541L263.558-223.541Q273.830-235.807 275.823-235.807Q277.663-235.807 290.235-225.687Q295.908-221.088 295.908-218.481Q295.908-215.722 291.769-215.722L222.008-215.722Q222.161-207.749 222.468-201.923Q222.621-198.090 222.621-197.783Q222.621-190.577 213.882-190.577Q207.902-190.577 207.902-196.557Q207.902-196.863 208.056-199.163Q208.669-206.522 208.822-215.722M72.674-210.049Q68.994-210.049 66.081-216.028Q55.349-237.800 36.797-248.686Q36.490-248.839 36.490-249.299Q36.490-251.599 38.330-251.139Q56.422-247.306 69.147-237.187Q80.187-228.447 80.187-220.168Q80.187-210.049 72.674-210.049M51.822-134.462Q47.836-134.462 44.310-141.975Q34.804-161.906 17.019-174.019Q16.712-174.172 16.712-174.479Q16.712-177.085 18.858-176.472Q37.104-172.332 49.216-161.446Q59.335-152.247 59.335-143.508Q59.335-134.462 51.822-134.462M47.989 20.392Q39.250 20.392 39.250 5.673Q39.250 0.613 39.863-10.579Q40.477-23.151 40.477-30.817Q40.477-44.770 34.190-50.442Q29.591-54.582 16.712-58.415Q15.792-58.722 15.792-60.102Q15.792-62.555 17.325-62.248Q28.058-60.868 31.737-60.868Q36.644-60.868 39.250-63.015Q42.010-65.161 44.923-71.294Q67.768-119.437 88.006-172.025Q88.313-172.945 89.386-172.945Q89.999-172.945 90.459-172.792Q92.146-172.332 92.146-171.105Q92.146-170.952 92.146-170.799Q77.120-124.036 53.355-60.562Q50.596-52.896 50.596-40.783Q50.596-36.030 54.275-20.852Q58.108-4.293 58.108 4.446Q58.108 20.392 47.989 20.392"/></g>
    <g transform="translate(364 194) rotate(0) translate(-116.62 88.30)" fill="#eef2ff" fill-opacity="1" filter="url(#glow)"><path d="M43.160-158.934L108.297-158.934L108.297-174.453Q108.297-182.383 107.164-191.898Q120.645-190.312 124.496-188.953Q127.555-187.934 127.555-185.895Q127.555-183.176 119.172-179.777L119.172-158.934L190.652-158.934Q197.563-166.410 199.035-166.410Q201.301-166.410 209.004-158.707Q213.648-154.176 213.648-152.023Q213.648-148.738 205.492-148.738Q203.793-148.738 202.434-147.605Q201.867-147.039 200.621-145.680Q199.488-144.434 198.809-143.641Q193.371-137.863 184.648-130.727Q184.422-130.500 183.969-130.500Q182.383-130.500 182.383-131.859Q182.383-132.086 182.496-132.312Q187.367-139.562 192.805-153.156L42.934-153.156Q41.688-139.902 34.551-131.406Q29-124.609 22.883-124.609Q20.164-124.609 18.125-126.762Q16.426-128.687 16.426-131.066Q16.426-134.125 17.898-135.711Q19.145-137.297 23.336-139.676Q39.082-149.984 39.422-168.676Q39.422-169.582 40.668-169.582Q42.027-169.582 42.141-168.676Q43.160-164.031 43.160-158.934M109.656-4.871L109.656-61.285L35.230-61.285Q25.488-61.285 18.012-59.926L15.973-68.422Q25.148-67.062 35.230-67.062L109.656-67.062Q109.656-85.867 108.750-93.117Q120.305-91.758 123.590-90.512Q134.238-98.555 139.789-104.105Q143.301-107.617 153.043-118.605L70.234-118.605Q60.152-118.605 52.563-117.246L50.523-125.742Q59.926-124.383 70.234-124.383L154.402-124.383Q161.426-131.066 162.785-131.066Q164.484-131.066 171.848-123.477Q175.359-119.965 175.359-118.152Q175.359-114.754 165.617-114.414Q152.023-103.312 144.434-98.441Q139.336-95.043 126.309-87.906Q126.309-85.641 120.531-83.035L120.531-67.062L188.047-67.062Q198.016-78.391 199.375-78.391Q200.734-78.391 211.496-69.781Q217.273-65.250 217.273-63.324Q217.273-61.285 214.102-61.285L120.531-61.285L120.531-51.996L121.211-1.359Q121.211 7.703 112.375 12.801Q107.277 15.293 103.426 15.293Q100.707 15.293 100.141 11.555Q99.574 7.250 94.023 4.928Q88.473 2.605 72.840 0Q71.934-0.227 71.934-1.586Q71.934-3.059 72.840-3.059Q100.594-0.680 105.465-0.680Q109.656-0.680 109.656-4.871"/></g>
    <g transform="translate(188 364) rotate(0) translate(-109.62 83.84)" fill="#eef2ff" fill-opacity="0.82" filter="url(#glow)"><path d="M39.746-152.002L102.910-152.002L102.910-165.645Q102.910-172.090 101.836-181.328Q114.941-179.824 118.701-178.535Q121.602-177.568 121.602-175.635Q121.602-172.842 113.760-169.404L113.760-152.002L179.717-152.002Q186.377-158.877 187.666-158.877Q189.600-158.877 197.549-151.357Q201.738-147.490 201.738-145.664Q201.738-142.012 194.004-141.689Q191.533-141.689 188.955-138.682Q184.551-133.311 175.098-125.469Q174.775-125.254 174.346-125.254Q172.734-125.254 172.734-126.436Q172.734-126.543 172.842-126.758Q178.750-136.104 181.650-146.523L39.531-146.523Q38.779-133.418 32.334-125.469Q27.285-119.238 21.484-119.238Q18.691-119.238 16.650-121.494Q14.932-123.428 14.932-126.113Q14.932-129.980 20.410-133.311Q35.771-143.516 36.094-161.670Q36.094-162.529 37.275-162.529Q38.564-162.529 38.672-161.670Q39.316-158.555 39.746-152.002M102.695-6.553L102.695-66.064L35.342-66.064Q25.996-66.064 18.906-64.775L16.865-72.832Q25.889-71.543 35.342-71.543L102.695-71.543L102.695-112.041L59.189-112.041Q51.133-112.041 43.936-110.752L41.787-118.809Q50.166-117.520 59.189-117.520L154.795-117.520Q163.389-127.187 164.678-127.187Q165.967-127.187 175.742-119.453Q180.361-115.801 180.361-113.975Q180.361-112.041 177.461-112.041L113.223-112.041L113.223-71.543L175.742-71.543Q185.625-82.715 186.914-82.715Q188.203-82.715 198.623-74.336Q204.316-69.824 204.316-67.998Q204.316-66.064 201.416-66.064L113.223-66.064L113.223-55.322Q113.223-28.467 113.760-12.568Q114.082-4.082 114.082-2.686Q114.082 6.338 105.703 11.172Q101.299 13.643 97.646 13.643Q94.854 13.643 94.316 10.098Q93.779 6.016 87.764 3.438Q82.178 1.182 67.676-1.719Q66.816-1.934 66.816-3.223Q66.816-5.049 67.891-4.834Q89.160-1.719 97.646-1.719Q102.695-1.719 102.695-6.553"/></g>
    <g transform="translate(394 356) rotate(0) translate(-147.21 113.24)" fill="#eef2ff" fill-opacity="0.96" filter="url(#glow)"><path d="M152.047-164.332L152.047-129.355L222-129.355Q229.949-137.738 231.395-137.738Q232.840-137.738 241.367-130.223Q245.559-126.754 245.559-124.586Q245.559-122.273 237.898-117.215L237.898-70.098Q237.898-28.617 238.910-2.746Q238.910 0.434 239.199 6.648Q239.344 9.828 239.344 10.695Q239.344 18.066 230.238 18.066Q224.313 18.066 224.313 12.141L224.313 0L69.809 0L69.809 10.984Q69.809 18.066 60.703 18.066Q54.777 18.066 54.777 12.430Q54.777 11.273 54.922 6.938Q55.211 1.012 55.355-2.312Q56.223-29.051 56.223-67.785Q56.223-124.586 54.488-138.605Q66.051-133.691 72.410-129.355L138.461-129.355Q138.461-168.523 137.016-179.363Q153.637-177.340 158.406-175.750Q162.164-174.449 162.164-171.992Q162.164-168.523 152.047-164.332M138.461-70.676L138.461-121.984L69.809-121.984L69.809-70.676L138.461-70.676M224.313-121.984L152.047-121.984L152.047-70.676L224.313-70.676L224.313-121.984M152.047-63.305L152.047-7.371L224.313-7.371L224.313-63.305L152.047-63.305M69.809-7.371L138.461-7.371L138.461-63.305L69.809-63.305L69.809-7.371M54.344-199.742L138.461-199.742L138.461-221.422Q138.461-228.793 136.871-244.547Q154.070-242.523 158.840-240.789Q162.742-239.488 162.742-236.887Q162.742-233.418 152.336-229.082L152.336-199.742L244.691-199.742Q252.641-208.125 254.520-208.125Q257.410-208.125 266.949-198.586Q273.164-192.371 273.164-189.770Q273.164-185.289 263.047-185.289Q259.867-185.289 254.520-179.074Q246.426-169.969 235.875-161.008Q235.441-160.719 234.863-160.719Q232.695-160.719 232.695-162.309Q232.695-162.453 232.840-162.742Q242.813-179.219 246.715-192.371L53.766-192.371Q51.887-174.449 43.648-163.031Q36.855-153.926 29.484-153.926Q26.016-153.926 23.414-156.672Q21.246-159.129 21.246-162.164Q21.246-167.801 30.063-173.148Q49.141-187.168 49.863-213.617Q49.863-214.629 51.309-214.629Q53.188-214.629 53.477-213.328Q54.344-206.246 54.344-199.742"/></g>
  </g>
</svg>
